<svg xmlns="http://www.w3.org/2000/svg" width="1600" height="900" viewBox="0 0 1600 900"><rect width="100%" height="100%" fill="#0b0b0b"/><path fill="#ffffff" d="M377.56 453.63h56.58l-21.65-59.16q-1.6-3.94-3.32-9.35t-3.44-11.68q-1.6 6.27-3.32 11.74-1.73 5.48-3.33 9.53zm45.14-110.7 69.86 177.86h-25.58q-4.3 0-7.01-2.15t-4.06-5.35L442.63 477h-73.68l-13.28 36.29q-.99 2.83-3.82 5.16-2.83 2.34-7.01 2.34h-25.83L389 342.93zm109.84 57.2 2.09 9.96q3.81-3.81 8.06-7.07 4.24-3.26 8.98-5.54 4.73-2.27 10.14-3.56 5.42-1.3 11.81-1.3 10.33 0 18.33 3.51 7.99 3.5 13.34 9.84 5.35 6.33 8.12 15.13 2.77 8.79 2.77 19.37v80.32H585.8v-80.32q0-11.56-5.29-17.9-5.29-6.33-16.11-6.33-7.88 0-14.76 3.57-6.89 3.56-13.04 9.71v91.27h-30.38v-126.2h18.57q5.9 0 7.75 5.54m179.09 88.07v-21.28q-13.16.61-22.14 2.27t-14.39 4.25q-5.42 2.58-7.75 6.02-2.34 3.45-2.34 7.5 0 8 4.74 11.44 4.73 3.45 12.36 3.45 9.35 0 16.17-3.38 6.83-3.39 13.35-10.27m-64.21-66.3-5.41-9.72q21.77-19.92 52.4-19.92 11.07 0 19.8 3.62 8.73 3.63 14.76 10.09t9.16 15.44q3.14 8.97 3.14 19.68v79.7h-13.78q-4.3 0-6.64-1.29-2.33-1.29-3.69-5.23l-2.7-9.1q-4.8 4.3-9.35 7.56t-9.47 5.48q-4.92 2.21-10.52 3.38t-12.36 1.17q-8 0-14.76-2.15-6.77-2.16-11.69-6.46-4.92-4.31-7.62-10.7-2.71-6.4-2.71-14.89 0-4.79 1.6-9.53 1.6-4.73 5.23-9.04 3.63-4.3 9.41-8.12 5.78-3.81 14.2-6.64 8.43-2.83 19.62-4.61 11.2-1.78 25.59-2.15v-7.38q0-12.67-5.41-18.76-5.42-6.09-15.63-6.09-7.38 0-12.23 1.72-4.86 1.72-8.55 3.88-3.69 2.15-6.71 3.87-3.01 1.72-6.7 1.72-3.2 0-5.41-1.66-2.22-1.66-3.57-3.87m122.76-83.89h30.38v182.78h-30.38zm151.04 56.58h24.35l-68.75 160.89q-1.36 3.19-3.51 4.85t-6.58 1.66H844.1l23.61-50.67-51.04-116.73h26.69q3.57 0 5.6 1.72 2.03 1.73 3.01 3.94l26.81 65.44q1.36 3.32 2.28 6.64t1.78 6.76q1.11-3.44 2.22-6.82 1.1-3.39 2.46-6.71l25.34-65.31q.98-2.46 3.25-4.06 2.28-1.6 5.11-1.6m130.13 0v12.55q0 3.2-1.1 6.27-1.11 3.08-2.96 5.04l-59.9 78.97h62.12v23.37h-97.42v-12.67q0-2.09.99-4.98.98-2.89 2.95-5.47l60.51-79.83h-60.88v-23.25zm46.37 48.59h57.32q0-5.91-1.66-11.13-1.66-5.23-4.98-9.17-3.32-3.93-8.42-6.21-5.11-2.27-11.87-2.27-13.17 0-20.73 7.5t-9.66 21.28m77.49 18.32h-78.1q.74 9.72 3.44 16.79 2.71 7.08 7.14 11.69t10.51 6.89q6.09 2.27 13.47 2.27t12.73-1.72 9.35-3.81 7.01-3.82q3.02-1.72 5.84-1.72 3.82 0 5.66 2.83l8.74 11.07q-5.05 5.91-11.32 9.9-6.27 4-13.1 6.4t-13.9 3.38-13.71.98q-13.16 0-24.48-4.36-11.32-4.37-19.68-12.92-8.36-8.54-13.16-21.15t-4.8-29.21q0-12.92 4.18-24.3 4.19-11.37 12-19.8t19.06-13.35q11.26-4.92 25.4-4.92 11.93 0 22.02 3.82 10.08 3.81 17.34 11.13t11.38 17.96 4.12 24.29q0 6.89-1.48 9.29-1.47 2.39-5.66 2.39m56.71-59.28 1.84 14.27q5.91-11.32 14.02-17.78 8.12-6.45 19.19-6.45 8.74 0 14.02 3.81l-1.96 22.75q-.62 2.22-1.79 3.14t-3.13.92q-1.85 0-5.48-.61-3.63-.62-7.07-.62-5.04 0-8.98 1.48-3.93 1.47-7.07 4.24t-5.54 6.7q-2.39 3.94-4.49 8.98v77.74h-30.38v-126.2h17.84q4.67 0 6.52 1.66 1.84 1.66 2.46 5.97"/></svg>