<svg xmlns="http://www.w3.org/2000/svg" width="1600" height="900" viewBox="0 0 1600 900"><rect width="100%" height="100%" fill="#0b0b0b"/><path fill="#ffffff" d="M352.795 451.39h17.39q6.4 0 11.16-1.6 4.75-1.6 7.91-4.59 3.16-2.98 4.71-7.26 1.56-4.29 1.56-9.56 0-5.02-1.56-9.09-1.55-4.06-4.67-6.92-3.11-2.85-7.87-4.36-4.76-1.52-11.24-1.52h-17.39zm-23.27-62.89h40.66q12.54 0 21.71 2.94t15.14 8.22q5.96 5.28 8.86 12.63t2.9 16.09q0 9.08-3.03 16.65t-9.08 13.02q-6.06 5.45-15.18 8.47-9.13 3.03-21.32 3.03h-17.39v44.03h-23.27zm104.41 36.33h21.45v88.75h-21.45zm24.39-25.86q0 2.77-1.12 5.19-1.13 2.42-2.99 4.24-1.86 1.81-4.37 2.89t-5.36 1.08q-2.77 0-5.23-1.08-2.47-1.08-4.28-2.89-1.82-1.82-2.9-4.24t-1.08-5.19q0-2.86 1.08-5.37 1.08-2.5 2.9-4.32 1.81-1.82 4.28-2.9 2.46-1.08 5.23-1.08 2.85 0 5.36 1.08t4.37 2.9 2.99 4.32q1.12 2.51 1.12 5.37m19.12-13.93h21.36v128.54h-21.36zm82 38.41q9.86 0 17.95 3.2t13.84 9.08 8.86 14.36q3.12 8.48 3.12 18.94 0 10.56-3.12 19.03-3.11 8.48-8.86 14.45t-13.84 9.17-17.95 3.2q-9.95 0-18.08-3.2t-13.88-9.17q-5.76-5.97-8.91-14.45-3.16-8.47-3.16-19.03 0-10.46 3.16-18.94 3.15-8.48 8.91-14.36 5.75-5.88 13.88-9.08t18.08-3.2m0 74.99q11.07 0 16.39-7.44t5.32-21.79q0-14.36-5.32-21.89-5.32-7.52-16.39-7.52-11.25 0-16.65 7.56-5.41 7.57-5.41 21.85 0 14.27 5.41 21.75 5.4 7.48 16.65 7.48m89.7 16.52q-11.59 0-17.78-6.53-6.18-6.53-6.18-18.03v-49.57h-9.08q-1.73 0-2.94-1.12-1.22-1.13-1.22-3.37v-8.48l14.28-2.34 4.49-24.22q.44-1.73 1.65-2.68t3.11-.95h11.07v27.94h23.71v15.22h-23.71v48.1q0 4.15 2.04 6.48 2.03 2.34 5.58 2.34 1.99 0 3.33-.48 1.34-.47 2.33-.99 1-.52 1.78-.99.77-.48 1.55-.48.95 0 1.56.48.6.47 1.3 1.42l6.4 10.38q-4.67 3.89-10.73 5.88-6.05 1.99-12.54 1.99m103.45-66.95h14.54q6.57 0 11.46-1.64 4.88-1.64 8.04-4.54t4.72-6.88q1.55-3.98 1.55-8.74 0-9.51-6.27-14.61-6.27-5.11-19.16-5.11h-14.88zm43.08 19.38 31.31 46.19h-21.02q-5.96 0-8.65-4.67l-26.29-40.05q-1.47-2.25-3.25-3.2-1.77-.95-5.23-.95h-9.95v48.87h-23.27V388.5h38.15q12.72 0 21.84 2.64 9.13 2.64 14.97 7.39 5.84 4.76 8.6 11.38 2.77 6.62 2.77 14.57 0 6.32-1.86 11.94t-5.36 10.21q-3.5 4.58-8.65 8.04t-11.72 5.45q2.25 1.3 4.15 3.07 1.9 1.78 3.46 4.2m58.39-8.39h40.31q0-4.15-1.17-7.83t-3.5-6.44q-2.34-2.77-5.93-4.37t-8.35-1.6q-9.25 0-14.57 5.27-5.32 5.28-6.79 14.97m54.49 12.89h-54.92q.51 6.83 2.42 11.8 1.9 4.98 5.01 8.22 3.12 3.25 7.4 4.85t9.47 1.6 8.95-1.22q3.77-1.21 6.58-2.68t4.93-2.68 4.11-1.21q2.68 0 3.98 1.99l6.14 7.79q-3.55 4.15-7.96 6.96t-9.21 4.5q-4.8 1.68-9.78 2.38-4.97.69-9.64.69-9.26 0-17.21-3.07-7.96-3.07-13.84-9.09-5.89-6.01-9.26-14.87-3.37-8.87-3.37-20.55 0-9.08 2.94-17.08t8.43-13.93q5.49-5.92 13.41-9.38 7.91-3.46 17.86-3.46 8.39 0 15.48 2.68 7.1 2.68 12.2 7.83 5.1 5.14 8 12.63 2.9 7.48 2.9 17.08 0 4.84-1.04 6.53t-3.98 1.69m80.02-37.46-4.85 7.7q-.86 1.38-1.82 1.95-.95.56-2.42.56-1.55 0-3.33-.87-1.77-.86-4.11-1.94-2.33-1.08-5.32-1.95-2.98-.86-7.05-.86-6.31 0-9.9 2.68t-3.59 7q0 2.86 1.86 4.81 1.86 1.94 4.93 3.41t6.96 2.64q3.9 1.17 7.92 2.55 4.02 1.39 7.91 3.16 3.9 1.77 6.97 4.5 3.07 2.72 4.93 6.53 1.86 3.8 1.86 9.17 0 6.4-2.3 11.8-2.29 5.41-6.79 9.35-4.49 3.93-11.11 6.14-6.62 2.2-15.27 2.2-4.58 0-8.95-.82t-8.39-2.29-7.44-3.46-6.01-4.33l4.93-8.13q.95-1.47 2.25-2.25 1.29-.77 3.28-.77t3.77 1.12q1.77 1.13 4.11 2.42 2.33 1.3 5.49 2.42 3.16 1.13 8 1.13 3.81 0 6.53-.91 2.73-.91 4.5-2.38t2.59-3.41q.83-1.95.83-4.03 0-3.11-1.86-5.1t-4.93-3.46q-3.08-1.47-7.01-2.64-3.94-1.17-8.05-2.55-4.1-1.38-8.04-3.24t-7.01-4.72q-3.07-2.85-4.93-7-1.86-4.16-1.86-10.04 0-5.45 2.17-10.38 2.16-4.93 6.35-8.61 4.2-3.67 10.47-5.88 6.27-2.2 14.49-2.2 9.17 0 16.69 3.02 7.53 3.03 12.55 7.96m72.14-9.6h21.36v88.75h-13.06q-4.24 0-5.36-3.89l-1.47-7.1q-5.45 5.54-12.03 8.96-6.57 3.41-15.48 3.41-7.27 0-12.85-2.46-5.57-2.47-9.38-6.96-3.81-4.5-5.75-10.69-1.95-6.18-1.95-13.62v-56.4h21.37v56.4q0 8.13 3.76 12.58 3.76 4.46 11.29 4.46 5.53 0 10.38-2.47 4.84-2.46 9.17-6.79zm42.73-39.79h21.36v128.54h-21.36zm72.31 129.92q-11.59 0-17.77-6.53-6.19-6.53-6.19-18.03v-49.57h-9.08q-1.73 0-2.94-1.12-1.21-1.13-1.21-3.37v-8.48l14.27-2.34 4.5-24.22q.43-1.73 1.64-2.68t3.11-.95h11.08v27.94h23.7v15.22h-23.7v48.1q0 4.15 2.03 6.48 2.03 2.34 5.58 2.34 1.99 0 3.33-.48 1.34-.47 2.33-.99 1-.52 1.78-.99.78-.48 1.55-.48.96 0 1.56.48.61.47 1.3 1.42l6.4 10.38q-4.67 3.89-10.73 5.88-6.05 1.99-12.54 1.99m93.77-80.53-4.85 7.7q-.86 1.38-1.81 1.95-.95.56-2.43.56-1.55 0-3.33-.87-1.77-.86-4.1-1.94-2.34-1.08-5.32-1.95-2.99-.86-7.05-.86-6.32 0-9.91 2.68t-3.59 7q0 2.86 1.86 4.81 1.86 1.94 4.93 3.41t6.97 2.64q3.89 1.17 7.91 2.55 4.02 1.39 7.92 3.16 3.89 1.77 6.96 4.5 3.07 2.72 4.93 6.53 1.86 3.8 1.86 9.17 0 6.4-2.29 11.8-2.3 5.41-6.79 9.35-4.5 3.93-11.12 6.14-6.62 2.2-15.27 2.2-4.58 0-8.95-.82t-8.39-2.29-7.44-3.46-6.01-4.33l4.93-8.13q.95-1.47 2.25-2.25 1.3-.77 3.29-.77t3.76 1.12q1.77 1.13 4.11 2.42 2.33 1.3 5.49 2.42 3.16 1.13 8 1.13 3.81 0 6.53-.91 2.73-.91 4.5-2.38t2.6-3.41q.82-1.95.82-4.03 0-3.11-1.86-5.1t-4.93-3.46-7.01-2.64-8.04-2.55q-4.11-1.38-8.05-3.24-3.93-1.86-7-4.72-3.08-2.85-4.94-7-1.86-4.16-1.86-10.04 0-5.45 2.17-10.38 2.16-4.93 6.36-8.61 4.19-3.67 10.46-5.88 6.27-2.2 14.49-2.2 9.17 0 16.69 3.02 7.53 3.03 12.55 7.96"/></svg>